<svg id="Layer_1" data-name="Layer 1" xmlns="http://www.w3.org/2000/svg" xmlns:xlink="http://www.w3.org/1999/xlink" viewBox="0 0 582.97 453.97"><defs><clipPath id="clip-path"><path d="M157.29,319.13c-4,10.34,2.9-2.21-1.08,7.6-1.64,5.31,2.23,2,.15,10.42-1.51,7.26-.89,9.06-2.18,10-1.42,1.85-2.66,1.5-5.35,3.89h0c-9.31,3.33-16.83,10.73-25.62,15.33-4.73,2.48-9.73,4.09-14.54,6.38C98.51,377.57,92.54,384.57,84,391.13c-7.25,5.59-17.92,5.26-23.72,13-7.87,10.49-7,16.8-20.42,22.4a161.9,161.9,0,0,0-28.3,15.35c-5,3.32-6.68,12.33-11.58,12.74C3,453.74,6.53,446,10.76,437s9.35-19.58,15.44-25.54c9.47-9.28,22.11-14.94,31-24.56C65.37,377.94,68,368.14,79,361.6c7.47-4.48,13-6.81,17.61-13.67,4.21-6.21,5.53-8.39,13.49-11,12.61-4.11,23.63-25,30.36-37.84a4.75,4.75,0,0,0,2.72-.74l2.56-8.54.05-.14,39-130.43.76-2.08.81-.35c-2.78-6.26-22.85-11.89-23.44-19.08-.62-7.73-6.35-11.54-6.64-19-.46-12.87-9.14-11.84-7.29-24.09-13.59-.34-29.78-3.77-44.31-8.29A174.33,174.33,0,0,1,76.15,75c-5.61-3-4.16-3.33-7-7.14-4.56-6-5.85-5.2-13.17-8.48C47.13,55.4,41.06,46.83,34.35,40,47,50.31,73.08,53.05,89.05,56.78c7.83,1.82,12,3.9,18.94,7.3,7.44,3.62,15,2.28,22.87,3.66,5.57,1,13.87,1.68,18.6,4,4.27-.69,23.22-24.16,25.28-30.57,2.69-8.29,8.17-12.11,11.38-19.82,2-4.94,3-3.68,6.17-8.29,2.51-3.65,1.32-4.4,4.15-7.77C199.12,2.07,200,1,203.82.57c-3.45,6.1-3.53,7.43-4.54,14.29-1.12,7.5-9.21,12.9-11.36,20.25s-5.94,13-7.46,20.27c-2,9.51-12.61,16-11.47,25.54,1,8.61-1.59,14.86,1.28,23.38,2.73,8.1,21.52,8.72,21.3,16.83-.2,7.3.86,12.63,5.43,16.75a8.36,8.36,0,0,0-.83,1.58c-.49.42-.92-.71-1.45.48l6,.59.52.29,1.33-.11,1.31.13a1.73,1.73,0,0,1,.1-.24h0a1.6,1.6,0,0,0,.08.26l.38,0,146,14.36.45.69.41-.19-.36.29,67.72,103,2.91,4.43a8.79,8.79,0,0,0,.77-4c0-.31,0-.65-.05-1,7.47-.58,22.74-1.85,25.58-1.51,4.37.53,8.21,2.65,12.6,3.13,5.89.65,13.47-2.24,18.87.51,1.55.78,2.6,2.1,4.21,2.85,3.78,1.77,8.81,1,12.83.87s8.17-.78,12.09-.21c2.86.4,5.46,1.85,8.2,2.62,6.54,1.83,6.46.6,13.18.46s6.88-2.67,15-.19c4.43,1.35,1.43,7,1.42,8.46,0,3.61,3.7,3.74,5.77,6.33,3.34,4.14-1.66,5.91,1,10.35,2.93,4.79,3.17,8.89,7.87,13.16-2.21,6.18-1.56,10,1.06,16,1.69,3.86,7,9.19,8,13.23,1.25,4.8,1.84,12.42,4.06,16.82,4.19,8.38.07,12.32.4,21.26.25,6.8,4.11,9.48,5.86,16.18,1.22,4.69-2.16,9-2.24,13.84,0,2.42,2.25,10.1,3.37,12.29l-.16-.08c-.26-.12-.5-.26-.73-.39h0c-8.87-5.17-7.94-17.63-10.35-20.49-7.68-9.11-1.62-8.49-10.16-15.73-7.78-6.59-6.54-19.65-3.15-24-7.83-1.59-12.23-13.73-16.09-18.2-8.31-9.63-14.77-2.3-19.21-15.13-1.35-3.92,4.38-11.34-4-18.52-3-2.56-13.21.56-15.75.77-6,.49-12.39,1.61-18.46,1.38-8.87-.36-18.56-.85-27.37-2.52-7-1.32-23.8-.32-29.57-1a1.48,1.48,0,0,0,0-.19l-2.36.95-134.9,54.44-.5.2L165.8,314.82l-6.66-2.26C158.82,313.86,158.12,316.31,157.29,319.13Z" style="fill:none"/></clipPath><clipPath id="clip-path-2"><polygon points="301.06 267.52 333.98 314.91 222.07 314.91 252.35 267.52 301.06 267.52" style="fill:none"/></clipPath><linearGradient id="linear-gradient" x1="138.79" y1="276.16" x2="-19.59" y2="429.83" gradientTransform="matrix(1, -0.08, 0.08, 1, -18.21, 24.34)" gradientUnits="userSpaceOnUse"><stop offset="0" stop-color="#2c3032"/><stop offset="0.06" stop-color="#404448"/><stop offset="0.17" stop-color="#5c5f65"/><stop offset="0.23" stop-color="#666970"/><stop offset="0.37" stop-color="#2c3032"/><stop offset="0.4" stop-color="#404448"/><stop offset="0.45" stop-color="#5c5f65"/><stop offset="0.48" stop-color="#666970"/><stop offset="0.6" stop-color="#2c3032"/><stop offset="0.62" stop-color="#404448"/><stop offset="0.65" stop-color="#5c5f65"/><stop offset="0.67" stop-color="#666970"/><stop offset="0.74" stop-color="#2c3032"/><stop offset="0.76" stop-color="#404448"/><stop offset="0.8" stop-color="#5c5f65"/><stop offset="0.81" stop-color="#666970"/><stop offset="1" stop-color="#2c3032"/></linearGradient><linearGradient id="linear-gradient-2" x1="-15" y1="426.31" x2="139.06" y2="339.06" gradientTransform="matrix(1, -0.08, 0.08, 1, -18.21, 24.34)" gradientUnits="userSpaceOnUse"><stop offset="0" stop-color="#4b5154"/><stop offset="0.04" stop-color="#63676c"/><stop offset="0.09" stop-color="#808389"/><stop offset="0.13" stop-color="#8b8e94"/><stop offset="0.25" stop-color="#ddd"/><stop offset="0.28" stop-color="#d3d4d4"/><stop offset="0.33" stop-color="#b9babd"/><stop offset="0.4" stop-color="#8f9297"/><stop offset="0.4" stop-color="#8b8e94"/><stop offset="0.51" stop-color="#ddd"/><stop offset="0.54" stop-color="#d3d4d4"/><stop offset="0.61" stop-color="#b9babd"/><stop offset="0.69" stop-color="#8f9297"/><stop offset="0.69" stop-color="#8b8e94"/><stop offset="0.8" stop-color="#a4a6a8"/><stop offset="0.84" stop-color="#c7c8ca"/><stop offset="0.9" stop-color="#8b8e94"/><stop offset="1" stop-color="#4b5154"/></linearGradient><linearGradient id="linear-gradient-3" x1="33.63" y1="51" x2="206.95" y2="116.72" xlink:href="#linear-gradient-2"/><linearGradient id="linear-gradient-4" x1="47.49" y1="21.66" x2="163.04" y2="58.21" gradientTransform="matrix(1, -0.08, 0.08, 1, -18.21, 24.34)" gradientUnits="userSpaceOnUse"><stop offset="0" stop-color="#2c3032"/><stop offset="0.04" stop-color="#35393b"/><stop offset="0.18" stop-color="#515459"/><stop offset="0.26" stop-color="#5b5e64"/><stop offset="0.39" stop-color="#64686f"/><stop offset="0.54" stop-color="#666970"/><stop offset="0.66" stop-color="#2c3032"/><stop offset="0.72" stop-color="#404448"/><stop offset="0.82" stop-color="#5c5f65"/><stop offset="0.88" stop-color="#666970"/><stop offset="1" stop-color="#2c3032"/></linearGradient><linearGradient id="linear-gradient-5" x1="218.04" y1="-10.15" x2="167.74" y2="61.77" xlink:href="#linear-gradient-4"/><linearGradient id="linear-gradient-6" x1="205.03" y1="-7.87" x2="196.01" y2="132.92" xlink:href="#linear-gradient-2"/><linearGradient id="linear-gradient-7" x1="264.64" y1="151.63" x2="264.64" y2="212.17" gradientTransform="translate(682.81 421.98) rotate(157.23)" gradientUnits="userSpaceOnUse"><stop offset="0" stop-color="#a4a6a8"/><stop offset="0.28" stop-color="#ddd"/><stop offset="0.34" stop-color="#d3d4d4"/><stop offset="0.44" stop-color="#b9babd"/><stop offset="0.58" stop-color="#8f9297"/><stop offset="0.59" stop-color="#8b8e94"/><stop offset="1" stop-color="#a4a6a8"/><stop offset="1" stop-color="#cecfd1"/></linearGradient><linearGradient id="linear-gradient-8" x1="264.53" y1="158.02" x2="264.53" y2="212.2" gradientTransform="translate(682.81 421.98) rotate(157.23)" gradientUnits="userSpaceOnUse"><stop offset="0" stop-color="#ddd"/><stop offset="0.04" stop-color="#c7c8ca"/><stop offset="0.12" stop-color="#a6a8ac"/><stop offset="0.18" stop-color="#92959a"/><stop offset="0.22" stop-color="#8b8e94"/><stop offset="0.29" stop-color="#9d9fa4"/><stop offset="0.42" stop-color="#cacbcc"/><stop offset="0.47" stop-color="#ddd"/><stop offset="0.48" stop-color="#d7d7d7"/><stop offset="0.6" stop-color="#9b9e9f"/><stop offset="0.7" stop-color="#707476"/><stop offset="0.78" stop-color="#555a5d"/><stop offset="0.83" stop-color="#4b5154"/><stop offset="0.87" stop-color="#51575a"/><stop offset="0.92" stop-color="#63686c"/><stop offset="0.98" stop-color="#81848a"/><stop offset="1" stop-color="#8b8e94"/></linearGradient><linearGradient id="linear-gradient-9" x1="318.06" y1="105.53" x2="354.32" y2="153.55" gradientTransform="translate(14.23 -29.03) rotate(5.62)" gradientUnits="userSpaceOnUse"><stop offset="0" stop-color="#888a8c"/><stop offset="0.28" stop-color="#d1d1d1"/><stop offset="0.33" stop-color="#c7c8c8"/><stop offset="0.42" stop-color="#adaeb1"/><stop offset="0.53" stop-color="#83868b"/><stop offset="0.59" stop-color="#6c7077"/><stop offset="1" stop-color="#888a8c"/><stop offset="1" stop-color="#bdbec1"/></linearGradient><linearGradient id="linear-gradient-10" x1="217.64" y1="98.71" x2="204.06" y2="150.13" gradientTransform="translate(14.23 -29.03) rotate(5.62)" gradientUnits="userSpaceOnUse"><stop offset="0" stop-color="#cecfd1"/><stop offset="0" stop-color="#a4a6a8"/><stop offset="0.41" stop-color="#8b8e94"/><stop offset="0.42" stop-color="#8f9297"/><stop offset="0.56" stop-color="#b9babd"/><stop offset="0.66" stop-color="#d3d4d4"/><stop offset="0.72" stop-color="#ddd"/><stop offset="1" stop-color="#a4a6a8"/></linearGradient><linearGradient id="linear-gradient-11" x1="279.28" y1="97.95" x2="279.28" y2="154.59" gradientTransform="translate(14.23 -29.03) rotate(5.62)" xlink:href="#linear-gradient-8"/><linearGradient id="linear-gradient-12" x1="439.1" y1="-17.39" x2="472.42" y2="38.73" gradientTransform="translate(182.68 -157.06) rotate(56.68)" xlink:href="#linear-gradient-10"/><linearGradient id="linear-gradient-13" x1="383.2" y1="37.77" x2="393.92" y2="-19.45" gradientTransform="translate(182.68 -157.06) rotate(56.68)" xlink:href="#linear-gradient-10"/><linearGradient id="linear-gradient-14" x1="415.03" y1="-31.26" x2="415.03" y2="51" gradientTransform="translate(182.68 -157.06) rotate(56.68)" gradientUnits="userSpaceOnUse"><stop offset="0" stop-color="#4b5154"/><stop offset="0.05" stop-color="#51575a"/><stop offset="0.13" stop-color="#63686b"/><stop offset="0.21" stop-color="#818586"/><stop offset="0.31" stop-color="#aaacad"/><stop offset="0.4" stop-color="#ddd"/><stop offset="0.42" stop-color="#d7d7d7"/><stop offset="0.53" stop-color="#9b9e9f"/><stop offset="0.62" stop-color="#707476"/><stop offset="0.7" stop-color="#555a5d"/><stop offset="0.74" stop-color="#4b5154"/><stop offset="0.8" stop-color="#51575a"/><stop offset="0.88" stop-color="#63686c"/><stop offset="0.97" stop-color="#81848a"/><stop offset="1" stop-color="#8b8e94"/></linearGradient><linearGradient id="linear-gradient-15" x1="16.59" y1="205.11" x2="26.16" y2="154" gradientTransform="matrix(-0.29, 0.96, 0.96, 0.29, -4.3, 78.6)" xlink:href="#linear-gradient-10"/><linearGradient id="linear-gradient-16" x1="99.34" y1="152.04" x2="99.34" y2="203.74" gradientTransform="matrix(-0.29, 0.96, 0.96, 0.29, -4.3, 78.6)" gradientUnits="userSpaceOnUse"><stop offset="0.2" stop-color="#a4a6a8"/><stop offset="0.37" stop-color="#ddd"/><stop offset="0.43" stop-color="#d3d4d4"/><stop offset="0.52" stop-color="#b9babd"/><stop offset="0.64" stop-color="#8f9297"/><stop offset="0.65" stop-color="#8b8e94"/><stop offset="1" stop-color="#a4a6a8"/><stop offset="1" stop-color="#cecfd1"/></linearGradient><linearGradient id="linear-gradient-17" x1="94.33" y1="150.31" x2="94.33" y2="209.29" gradientTransform="matrix(-0.29, 0.96, 0.96, 0.29, -4.3, 78.6)" gradientUnits="userSpaceOnUse"><stop offset="0.07" stop-color="#8b8e94"/><stop offset="0.15" stop-color="#9d9fa4"/><stop offset="0.3" stop-color="#cacbcc"/><stop offset="0.36" stop-color="#ddd"/><stop offset="0.37" stop-color="#d7d7d7"/><stop offset="0.46" stop-color="#9b9e9f"/><stop offset="0.54" stop-color="#707476"/><stop offset="0.61" stop-color="#555a5d"/><stop offset="0.65" stop-color="#4b5154"/><stop offset="0.7" stop-color="#51575a"/><stop offset="0.79" stop-color="#63686c"/><stop offset="0.88" stop-color="#81848a"/><stop offset="0.91" stop-color="#8b8e94"/></linearGradient><linearGradient id="linear-gradient-18" x1="201.71" y1="163.47" x2="189.7" y2="208.93" gradientTransform="translate(267.58 583.01) rotate(-158.32)" gradientUnits="userSpaceOnUse"><stop offset="0" stop-color="#a4a6a8"/><stop offset="0.62" stop-color="#ddd"/><stop offset="0.72" stop-color="#bdbfc1"/><stop offset="0.83" stop-color="#a2a4a8"/><stop offset="0.93" stop-color="#919499"/><stop offset="1" stop-color="#8b8e94"/></linearGradient><linearGradient id="linear-gradient-19" x1="60.48" y1="172.55" x2="60.48" y2="217.69" gradientTransform="translate(267.58 583.01) rotate(-158.32)" gradientUnits="userSpaceOnUse"><stop offset="0" stop-color="#898b8e"/><stop offset="0.28" stop-color="#d2d2d2"/><stop offset="0.33" stop-color="#c8c9c9"/><stop offset="0.42" stop-color="#aeafb2"/><stop offset="0.54" stop-color="#84868c"/><stop offset="0.59" stop-color="#6f7279"/><stop offset="1" stop-color="#898b8e"/><stop offset="1" stop-color="#bebfc2"/></linearGradient><linearGradient id="linear-gradient-20" x1="126.12" y1="162.35" x2="126.12" y2="222.69" gradientTransform="translate(267.58 583.01) rotate(-158.32)" gradientUnits="userSpaceOnUse"><stop offset="0" stop-color="#8b8e94"/><stop offset="0.09" stop-color="#9d9fa4"/><stop offset="0.26" stop-color="#cacbcc"/><stop offset="0.33" stop-color="#ddd"/><stop offset="0.34" stop-color="#d7d7d7"/><stop offset="0.49" stop-color="#9b9e9f"/><stop offset="0.61" stop-color="#707476"/><stop offset="0.71" stop-color="#555a5d"/><stop offset="0.76" stop-color="#4b5154"/><stop offset="0.82" stop-color="#51575a"/><stop offset="0.89" stop-color="#63686c"/><stop offset="0.97" stop-color="#81848a"/><stop offset="1" stop-color="#8b8e94"/></linearGradient></defs><title>failFace</title><g id="Hole"><g style="clip-path:url(#clip-path)"><rect x="-22.27" y="-92.27" width="657.51" height="657.51" transform="translate(-18.28 25.8) rotate(-4.68)" style="fill:#221f20"/><path d="M355.7,140.47l10.53,215.91-88.21,29-88.2-29,10.53-215.91S275.39,60.16,355.7,140.47Z" style="fill:#a6a7a2;stroke:#221f20;stroke-miterlimit:10;stroke-width:4.14702923201994px"/><polygon points="185.06 213 262.73 213 260.1 197.2 214.17 180.63 185.06 213" style="fill:#221f20;opacity:0.33"/><circle cx="248.4" cy="210.91" r="3.95" style="fill:#221f20"/><path d="M223.39,216.17s19.75-5.26,35.54,0" style="fill:#a6a7a2;stroke:#221f20;stroke-miterlimit:10;stroke-width:4.14702923201994px"/><line x1="218.12" y1="210.91" x2="208.91" y2="213.54" style="fill:none;stroke:#221f20;stroke-linecap:square;stroke-miterlimit:10;stroke-width:2.76468615467996px"/><line x1="218.12" y1="206.96" x2="208.91" y2="205.64" style="fill:none;stroke:#221f20;stroke-linecap:square;stroke-miterlimit:10;stroke-width:2.76468615467996px"/><polyline points="264.2 204.32 262.88 196.42 214.17 180.63 196.35 197.74" style="fill:none;stroke:#221f20;stroke-linecap:square;stroke-miterlimit:10;stroke-width:7.89910329908559px"/><circle cx="320.81" cy="212.22" r="3.95" style="fill:#221f20"/><path d="M328.71,217.49s-19.75-5.27-35.55,0" style="fill:#a6a7a2;stroke:#221f20;stroke-miterlimit:10;stroke-width:4.14702923201994px"/><line x1="333.98" y1="212.22" x2="343.19" y2="214.86" style="fill:none;stroke:#221f20;stroke-linecap:square;stroke-miterlimit:10;stroke-width:2.76468615467996px"/><line x1="333.98" y1="208.27" x2="343.19" y2="206.96" style="fill:none;stroke:#221f20;stroke-linecap:square;stroke-miterlimit:10;stroke-width:2.76468615467996px"/><polyline points="291.85 204.32 293.16 196.42 337.93 184.57 359.88 204.32" style="fill:none;stroke:#221f20;stroke-linecap:square;stroke-miterlimit:10;stroke-width:7.89910329908559px"/><polyline points="287.9 189.84 290.53 255.67 260.25 255.67" style="fill:none;stroke:#221f20;stroke-linecap:square;stroke-miterlimit:10;stroke-width:7.89910329908559px"/><polygon points="301.06 267.52 333.98 314.91 222.07 314.91 252.35 267.52 301.06 267.52" style="fill:#fff;stroke:#221f20;stroke-linecap:square;stroke-miterlimit:10;stroke-width:2.76468615467996px"/><polygon points="301.06 324.13 252.35 324.13 277.37 332.02 301.06 324.13" style="fill:#221f20"/><path d="M266.8,237.3s-30.9-19.15-52.6,52.6" style="fill:none;stroke:#221f20;stroke-linecap:square;stroke-miterlimit:10;stroke-width:2.76468615467996px"/><path d="M290.25,238.44s30.9-19.15,52.6,52.6" style="fill:none;stroke:#221f20;stroke-linecap:square;stroke-miterlimit:10;stroke-width:2.76468615467996px"/><g style="clip-path:url(#clip-path-2)"><line x1="237.72" y1="286.73" x2="316.71" y2="286.73" style="fill:none;stroke:#221f20;stroke-linecap:square;stroke-miterlimit:10;stroke-width:2.76468615467996px"/></g><polygon points="362.79 215.64 291.69 215.64 293.16 196.42 337.93 184.57 360.15 203.79 362.79 215.64" style="fill:#221f20;opacity:0.33"/><path d="M243.08,130.41c-2,7.74-3.89,15.57-5.65,23.41s-3.36,15.71-4.77,23.62-2.61,15.85-3.3,23.85a100.45,100.45,0,0,0-.4,12,38.39,38.39,0,0,0,.64,6,15.91,15.91,0,0,0,.82,2.89,7.63,7.63,0,0,0,1.53,2.57,7.86,7.86,0,0,1-1.65-2.52,16.43,16.43,0,0,1-.94-2.88,40.47,40.47,0,0,1-.9-6,104.28,104.28,0,0,1-.09-12.12c.37-8.06,1.27-16.09,2.34-24.09s2.39-16,3.82-23.9,3-15.85,4.71-23.76Z" style="fill:#221f20"/><path d="M228,132c-.29,8-.29,16,.07,24.06.19,4,.47,8,.94,12a66.45,66.45,0,0,0,2.29,11.66,16.81,16.81,0,0,0,2.46,5.13,4.51,4.51,0,0,0,2,1.5,5.48,5.48,0,0,0,1.34.17,5.84,5.84,0,0,1,1.69.43,6.37,6.37,0,0,1,2.61,2.13,11.48,11.48,0,0,1,1.46,2.85,26,26,0,0,1,1.25,6.06,70.53,70.53,0,0,1-.06,12.16q-.49,6-1.56,12c.55-4,.9-8,1.06-12a69.84,69.84,0,0,0-.43-12,25.48,25.48,0,0,0-1.42-5.72c-.72-1.77-1.84-3.45-3.47-4A4.16,4.16,0,0,0,237,188a7.26,7.26,0,0,1-1.66-.17,6.1,6.1,0,0,1-2.87-1.94,18.27,18.27,0,0,1-3-5.6,67.88,67.88,0,0,1-2.86-12c-.65-4-1.1-8.07-1.45-12.12-.7-8.1-1-16.18-1.06-24.34Z" style="fill:#221f20"/><polygon points="198.39 180.63 218.13 152.99 200.35 140.47 198.39 180.63" style="fill:#221f20"/><path d="M264.2,222.75s-18.43,15.8-56.61,0" style="fill:none;stroke:#221f20;stroke-linecap:square;stroke-miterlimit:10;stroke-width:2.76468615467996px"/><path d="M289.21,222.75s18.44,15.8,56.61,0" style="fill:none;stroke:#221f20;stroke-linecap:square;stroke-miterlimit:10;stroke-width:2.76468615467996px"/><polygon points="360.07 205.14 329.57 174.64 190.07 165.14 190.07 98.14 362.07 114.14 360.07 205.14" style="fill:#221f20;opacity:0.33"/></g></g><path d="M581.42,414.9c-9.84-4.81-11-16.63-13.51-19.59-7.67-9.11-1.61-8.49-10.16-15.74-7.78-6.59-6.54-19.64-3.15-24-7.82-1.59-12.22-13.73-16.08-18.2-8.31-9.63-15.86-1-20.29-13.86-1.35-3.92,4.37-11.33-4.05-18.53-3-2.55-13.2.57-15.74.77-6.05.5-12.39,1.63-18.46,1.38-8.87-.35-18.57-.84-27.37-2.5-7.05-1.34-24.08-.32-29.72-1l3.33-2.64c5.64.67,22.67-.35,29.72,1,8.8,1.66,18.5,2.15,27.37,2.5,6.07.25,12.41-.88,18.46-1.37,2.54-.21,12.76-3.33,15.75-.78,8.41,7.2,2.69,14.61,4,18.53,4.43,12.83,10.9,5.5,19.21,15.13,3.86,4.47,8.26,16.61,16.09,18.2-3.4,4.35-4.64,17.4,3.14,24,8.55,7.24,2.49,6.62,10.16,15.73,2.5,3,1.42,16.15,11.26,21Z" style="fill:#4d4d4d"/><path d="M581.42,414.9c-1.12-2.19-1.16-11.24-1.12-13.66.08-4.85,3.46-9.15,2.24-13.84-1.74-6.69-4.43-9.47-4.68-16.27-.33-8.94,3.8-12.89-.41-21.26-2.21-4.4-2.8-12-4-16.83-1-4-6.34-9.37-8-13.23-2.62-6-3.28-9.79-1.07-16-4.69-4.27-4.94-8.38-7.86-13.16-2.71-4.44,2.28-6.22-1-10.36-2.08-2.57-5.77-2.72-5.77-6.33,0-1.48,1.63-9.35-2.8-10.71-8.08-2.48-8.35,0-15,.18s-6.62,1.38-13.17-.45c-2.74-.77-5.34-2.21-8.2-2.62-3.92-.56-8.15.1-12.09.21s-9,.91-12.83-.87c-1.61-.75-2.66-2.06-4.21-2.85-5.4-2.74-13,.14-18.87-.51-4.38-.48-8.23-2.6-12.59-3.13-3.5-.42-27.78,5.61-31.28,5.8l2.91,4.43c3.51-.2,22.8-6.93,26.3-6.51,4.37.53,8.22,2.65,12.6,3.13,5.89.65,13.47-2.24,18.86.51,1.56.79,2.61,2.1,4.22,2.85,3.79,1.77,8.81,1,12.83.86s8.17-.77,12.09-.21c2.86.41,5.46,1.86,8.2,2.63,6.54,1.83,6.45.6,13.17.45s6.89-2.66,15-.18c4.42,1.35,1.43,7,1.43,8.46,0,3.61,3.69,3.75,5.77,6.33,3.33,4.14-1.67,5.91,1,10.35,2.92,4.78,3.17,8.89,7.87,13.16-2.22,6.18-1.56,10,1.06,16,1.69,3.86,7,9.2,8,13.24,1.24,4.79,1.83,12.42,4,16.82,4.21,8.37.08,12.32.41,21.26.25,6.8,4.12,9.48,5.86,16.18,1.22,4.69-2.16,9-2.24,13.84,0,2.42,2.25,10.1,3.37,12.29Z" style="fill:#979797"/><path d="M142,287.78c-9.84,12.24-20.51,40.88-35.65,47.1-7.74,3.19-9.28,4.77-13.49,11-4.65,6.86-10.14,9.19-17.61,13.67-10.92,6.54-13.59,16.34-21.8,25.28-8.84,9.62-21.49,15.28-31,24.56C10.3,421.31,5.87,449.12,0,454.62H0c6-1.4,14.06-31.25,26.23-43.18,9.48-9.27,22.13-14.94,31-24.56C65.37,377.94,68,368.14,79,361.6c7.47-4.48,13-6.81,17.6-13.67,4.22-6.22,5.54-8.39,13.5-11,16.91-5.5,30.94-41.25,35.65-47.11Z" style="fill:url(#linear-gradient)"/><path d="M150.43,354.4c-9.3,3.33-16.83,10.73-25.62,15.34-4.72,2.48-9.73,4.08-14.54,6.38C100.11,381,94.14,388,85.61,394.55c-7.25,5.58-17.92,5.25-23.72,13-7.86,10.49-7,16.8-20.43,22.4a161.91,161.91,0,0,0-28.29,15.36c-4.23,2.79-6.51,8.78-13.21,9.33H0c4.92-.38,6.58-9.42,11.61-12.75a162.53,162.53,0,0,1,28.29-15.35c13.47-5.6,12.57-11.91,20.43-22.4,5.8-7.73,16.46-7.41,23.72-13,8.53-6.55,14.5-13.56,24.66-18.42,4.81-2.3,9.81-3.91,14.54-6.39,8.79-4.61,16.31-12,25.62-15.33Z" style="fill:url(#linear-gradient-2)"/><path d="M31.42,37.15c8,7.13,9.95,20.42,20,24.93,7.32,3.28,8.61,2.43,13.18,8.48,2.88,3.81,1.43,4.18,7,7.14,9.88,5.22,59,20.68,73.25,21-1.85,12.26,6.4,9.85,6.87,22.72.28,7.48,7.08,10,7.72,17.75.58,7.2,20.66,12.83,23.44,19.08l3.43-1.46c-2.79-6.25-22.86-11.89-23.45-19.08-.63-7.73-6.36-11.54-6.63-19-.47-12.86-9.15-11.83-7.3-24.09C125,94,92.9,83.82,76.15,75c-5.61-3-4.16-3.33-7-7.14-4.57-6-5.86-5.2-13.18-8.47-10.07-4.51-16.56-15.07-24.52-22.2Z" style="fill:url(#linear-gradient-3)"/><path d="M31.42,37.15C42.51,49.84,71.34,48,88.67,52.08c7.83,1.82,12,3.9,18.93,7.29,7.44,3.63,15,2.29,22.87,3.67,5.57,1,13.87,1.68,18.61,4l.38,4.7c-4.73-2.3-13-3-18.6-4-7.87-1.39-15.44,0-22.87-3.67-6.95-3.4-11.11-5.48-18.94-7.31-17.33-4-46.54-6.93-57.63-19.62Z" style="fill:url(#linear-gradient-4)"/><path d="M203.83.58c-5.2-.2-9.22,2.94-12,6.26S190.2,11,187.69,14.6c-3.14,4.6-4.12,3.36-6.18,8.29-3.2,7.72-8.69,11.53-11.37,19.83-2.06,6.4-16.23,21.05-21.06,24.3l.38,4.7c4.27-.69,23.22-24.16,25.29-30.56,2.67-8.3,8.16-12.12,11.37-19.82,2-4.94,3-3.7,6.18-8.29,2.5-3.66,1.31-4.41,4.13-7.78C199.12,2.07,200,1,203.83.58Z" style="fill:url(#linear-gradient-5)"/><path d="M203.83.58c-3.46,6.1-3.54,7.42-4.56,14.27-1.11,7.5-9.2,12.91-11.35,20.25s-5.94,13-7.46,20.28c-2,9.52-12.61,16-11.47,25.54,1,8.62-1.59,14.86,1.28,23.38,2.73,8.1,21.52,8.72,21.3,16.83-.26,9.18-5,14.36,3.15,18.81l6,.59c-8.2-4.44-4.82-11.78-4.56-21,.23-8.12-18.57-8.73-21.3-16.83-2.86-8.52-.25-14.76-1.28-23.38-1.13-9.5,9.5-16,11.47-25.54,1.53-7.31,4.25-12.73,6.44-20.19s9.07-12.27,10.18-19.77c1-6.86.38-7.12,2.15-13.28Z" style="fill:url(#linear-gradient-6)"/><path d="M291.34,364.64a13.32,13.32,0,0,0,2.43,3.43,14.1,14.1,0,0,1,1.4,3.4,14.09,14.09,0,0,0,2.53,5c3.45,3.21,6.67,5.18,6.67,3.54,1.5,1.29,2.91,2.31,4.47,3.7,1.1.31,3.32,3.25,4.44,3.78,2.59,3.88,3.88,4.9,4.2,3.92s2.45,1.27,5.15,4.45c1.4.19,3.7,1.86,6.1,3.09,1.43-1,6.29,5.16,6.53,0,.66-4.19,3.46-3.14,6.28-2.05,1.14-2.78,4.75.12,6.6-1.38,2.86-.25,5.57.13,7.58-1.19,3.09,1.15,4.3-2.1,7.21-2.6,2.07-.13,4.45.37,5.18-2.93s3.48-2,5.15-3.09a7.94,7.94,0,0,1,5.33-2.58c1.92.73,2.6-1.15,4.15-1,2.21,1.67,3.69,1.7,4-1.06,2.18.46,2.25-4,4.61-3.08,1.08-2.07,3.14-1.87,4.42-3.39,1.76-1.72,2.89-4.64,6.05-2.92,1.39-2.33,4.06-1.71,6.53-1.77,3.48,1.39,5.18-1.24,8-1.29s6.08.87,7.87-1.62c1.43-3.34,5.82,0,7.41-3.11,2.29,1.58,3.71.07,4.23-2.8,2.92,2.61,2.72-1.22,1.82-4.19-.68-2.39-2.21-4.07-2.77-3-1.5-1.09-1.56,1.62-3.75-2.14-3.37-5.43-1.86-1.75-3.37-6.24s1-1.07-.46-7.3c.74-1.17,1.18-3.52,1.09-6.87-.36-3.17.43-2.67.2-4.44-.89-3.29,1.38.72.06-4.33,1.55,1.72,2.83,1.69,1.75-3.62.94-.65,2.2-.51,1.39-3.73-.82-3.74-2.47-7-2.17-5.61-1.39-2.43-2.36-3.7-2.79-5.65-.28-1.09-.12-1.25-.5-2.67,0-.11,0-.25-.06-.41L418.5,304,288.58,356.42l.21,2.49C290.15,361.42,288.56,363.57,291.34,364.64Z" style="fill:url(#linear-gradient-7)"/><path d="M289.38,356.7c1.81,3,.54,2.9,1.55,3.74s.78,1.43,1.93,2.47a7.5,7.5,0,0,1,2.46,3.3c1.19,2.71,2.4,3.72,1.48,3.11.57,2.53,1.42.92,4.44,3.65,2.06.49,4.26.65,6,3.19,2.19,3.1,1.57-.32,4,3.32,2.21,3.1,2.25,1.25,4,3.4,1.6,1.8,3.51,4.48,3.78,3.54,3.41,6.09,4.7,6.86,4.63,4,.92-.58,2.4-.45,5.49,2.79,1.75.14,4.16,1.21,5.88,0,1.27.36,1.9-.69,2.6-1.54,2.54-2.85,5.25-1.49,9.28-3.12,6.9-3.69,18.77,2.4,24.46-6.23,1.74-2.52,4.69-.09,6.56-1.34.43-.57.75-1.38,1.53-1.12-1,3.65,3.28,1.44,3.63-.95.45-3,3.77.47,4.15-2.77,2.25,1.08,2-3.62,4-3.05,1.71-1.25,3.45-5,5.12-6.13,2-.45,4.87,1.25,5.88-1.59,2.52-.15,4.52-1.43,7.2-1.17,1.62-2.18,5-.23,7.1-1.45,1.74-1.95,3.73-3.4,6.66-2.79,1.1-.77,2.83-1.1,3.8-2.53,1.87.6,1.45-3.4,1.64-3.77-.86-2.72-.93-1.24-2.49-2.74-.31,1.4-1.59,1-3.38-1.92-3.1-5-2.23-2.86-3-5.61s2.69-5.64,3.9-5.44c.8-.76,2.32-.31,1-6.19-.27-2.71-5.46-7-4.14-5.12-.39-2,5.12-5.21,5.53-6.11.93.49.66-2.78,1.57-3.25,2.39,2.92.27-4.39,1.25-3.36.46-.63-2-5.65-2.48-6.49a6.15,6.15,0,0,1-1.29-3.75c-.05-.45-.91-1.08.25-1.8L288.58,356.42C289.24,356.93,289.28,356.53,289.38,356.7Z" style="fill:url(#linear-gradient-8)"/><path d="M353.93,152c-2.22-6-5-8-7.05-5.31-1.46-2.06-4-2.89-6.18-5.48-2.77,3.43-4.5-1.9-5-6.23-.67-7.59.84-2.15.59-6.2-.88,1.19-2.76-3.23-5-5.55-2.3-1.44-4.85-1.72-5.77-5.26-1-1.76-1.79,2.87-.84-5,.66-5,1.28-4,2.35-4.65.59.07,1.22-1.66,1.74-3.27l-5-.62c-.09.63-.22,1.51-.37,2.76.33-5.53-1.15,6.41-1.61,5.36-1,1.25-1.56.16-2.11,4.18-.27,1.15.41-2.44.76,4.54.86,2.85,2.61,8.58,5.19,4.74a5.56,5.56,0,0,1,4.47,5c.73-1.36-1.78,5.5-.52,5.58,1-1.5,2.63,2.53,4.52,5.61,1.77,4.21,3.9,6.54,5.56,4.93,1.57,0,4.48-2,6.34,4.78,1.88-.06,3.53,1.16,4.44,3.42l8.57.85C358,153.12,356.22,150.86,353.93,152Z" style="fill:url(#linear-gradient-9)"/><path d="M204,140.57a1.3,1.3,0,0,0,.08.29l.38,0c.86-1.27,2.33-9.32,3-6.3,1.5-1.78-.88-.6.73-5.6,1,1,2.18.4,4-4.82.71,1.57,2.25-6.42,2.55-4.38.74-2.49,4,1.62,4.28-3.34.25-3.89-.67-4.18-1.41-5.66-.08-8.16-1.34-3.53-1-5.25.84-5.92,1.92-3.29,3.15-3,1.39-1.46,2.33.81,2.71-4.32.77-8.17-.33-1.6-.5-5.09,0-.48,0-.89,0-1.27l-5.25-.65c0,.32,0,.71,0,1.2-.09,2.25-1.39,2.36-3,4.79-1.55,1.59-2.43-4.65-3.5,3.38,0-2.26-.25,9.75,1.12,5.83a27.66,27.66,0,0,1,1.56,6.28c-.84,10.46-.72,6.55-1.16,5.34-.46-1-1.89,5-2.83,4.86-1.49.37-9.25,9.49-11.38,12.41-.38.52-.5,2.6-.63,4.87l7,.69C203.93,140.75,204,140.65,204,140.57Z" style="fill:url(#linear-gradient-10)"/><path d="M222,93.11c.17,3.49,1.27-3.08.5,5.09-.38,5.13-1.32,2.86-2.71,4.32-1.23-.26-2.31-2.89-3.15,3-.34,1.72.92-2.91,1,5.25.74,1.48,1.66,1.77,1.41,5.66-.32,5-3.54.85-4.28,3.34-.3-2-1.84,6-2.55,4.38-1.82,5.22-3,5.8-4,4.82-1.61,5,.77,3.82-.73,5.6-.68-3-2.15,5-3,6.3l146,14.36c-.91-2.26-2.56-3.48-4.44-3.42-1.86-6.75-4.77-4.79-6.34-4.78-1.66,1.61-3.79-.72-5.56-4.93-1.89-3.08-3.53-7.11-4.52-5.61-1.26-.08,1.25-6.94.52-5.58a5.56,5.56,0,0,0-4.47-5c-2.58,3.84.05-3.45-3.31-6-.34-7-1-3.39-.76-4.55.55-4,1.08-2.92,2.11-4.18.47,1.06.06-9.67-.27-4.14.15-1.25.28-2.13.37-2.76L222,91.84C222,92.22,222,92.63,222,93.11Z" style="fill:url(#linear-gradient-11)"/><path d="M429.45,196.63a3.38,3.38,0,0,0-1.8,2.53c1.05,1-.54,5.17-.22,8.41a92.72,92.72,0,0,1,.69,9.77c-.08,3.88-1.45,5-3.25,5.56-2.3.85-3-.23-5.84,1.94a5.86,5.86,0,0,0-2.51,3.54c-.91-2,1.42-5.57,1.07-5.84,1-.33,3.89-1.38,5.11-1.75,1.62-.49,2.86-1.51,2.93-5,.19-2.84.29-6.3-.62-8.8,2.24-4.57.14-6,.2-7.57C425.55,197.7,425.65,197.34,429.45,196.63Zm-10.34,45.5a8.65,8.65,0,0,1,.31,5.13c1.8,2.06.88,4.74,1.19,6.05-1.31,2.39-1.61,3.55-1,4.15a16.62,16.62,0,0,0-1,1.58l2.91,4.43a8.79,8.79,0,0,0,.77-4,48.78,48.78,0,0,0-1.1-7.16,46.66,46.66,0,0,0-.34-5.7,38.58,38.58,0,0,0,.06-5.31c-.52-2.8-1.68-6.32-2.51-9.34a5.38,5.38,0,0,1-.86-.65c.56,2.12,1.07,4.35,1.6,6C420.05,238.67,419.6,240.34,419.11,242.13Z" style="fill:url(#linear-gradient-12)"/><path d="M354,152.54c3.48-2,1.81,1.1,5.51,1.19-.78,3,4.74,2.45,6.49,3.65a26.08,26.08,0,0,1,8.59,1.39c2.78.12,8.43-2.2,7.44-1.15.18.06.88-.4,2.22-1.42-1.38.77-4.56,2.57,1.8-2,1.15-1.22,0-3.29,2-3.78,2.92-.9,2.59,2.2,5,3.69,1.07,2.4,4.88,3.21,5.3,4.8,1.45.47,0,2.1,3.66.66,0,.91,2.16.7,4.06,1.88a14.13,14.13,0,0,1,3.17,3.51c1,1.47,2,3.17,3.06,4.85a14.33,14.33,0,0,1,3,5c1.65,1.11,2.07,2.85,2.56,4.15,1.1,1.24,1.15,3.3,2.56,4.55.34,1.94,2.55,2.71,3.15,4.55a32.8,32.8,0,0,0,2.8,4.72,25.21,25.21,0,0,0,3.3,3.75,5.88,5.88,0,0,1,3-.5c-4.69-5.29-9.22-13.53-13.21-19.61-1.66-2.52-3.15-6.87-6.19-10.14-1.94-4-5.49-6.87-6.93-9.29a7.33,7.33,0,0,0-4.51-2.09c-.68-.59-2.24-.33-4.07-.73-1.84-.86-6.92-1.21-5.89-5.33-2-2.14-3.92-4.07-5.58-4.1-1.39,0-3.65,4.6-2.26,4.2-3.69,2.87-2.36,2.32-2,2.23,1.75-1,.6-.24-2.47,1.58-1.48.68-3.88,1.47-5.18,1.19.17-1.24-4.12.1-6.31-.13-.65-1.25-5.18-.14-6.32-1.32-2.81-.76-5.79-1.92-7.21-4.06-.27-.41-1.32-1.41-3.73-1.83l-.47,8.7A16.13,16.13,0,0,1,354,152.54Z" style="fill:url(#linear-gradient-13)"/><path d="M423.61,188c-.6-1.84-2.81-2.61-3.15-4.55-1.41-1.25-1.46-3.31-2.56-4.55-.49-1.3-.91-3-2.56-4.15a14.33,14.33,0,0,0-3-5c-1.05-1.68-2.05-3.38-3.06-4.85a14.13,14.13,0,0,0-3.17-3.51c-1.9-1.18-4-1-4.06-1.88-3.63,1.44-2.21-.19-3.66-.66-.42-1.59-4.23-2.4-5.3-4.8-2.44-1.49-2.11-4.59-5-3.69-2,.49-.88,2.56-2,3.78-6.36,4.58-3.18,2.78-1.8,2-1.34,1-2,1.48-2.22,1.42,1-1.05-4.66,1.27-7.44,1.15a26.08,26.08,0,0,0-8.59-1.39c-1.75-1.2-7.27-.62-6.49-3.65-3.7-.09-2-3.2-5.51-1.19a16.13,16.13,0,0,0-3.55,2.72L418.64,259a16.62,16.62,0,0,1,1-1.58c-.65-.6-.35-1.76,1-4.15-.31-1.31.61-4-1.19-6.05a8.65,8.65,0,0,0-.31-5.13c.49-1.79.94-3.46.06-4.78-.53-1.69-1-3.92-1.6-6a3.2,3.2,0,0,1-1.05-2.93c-.91-2,1.42-5.57,1.07-5.84-.35.11-.46.13-.14,0,.07,0,.11,0,.14,0,1-.33,3.89-1.38,5.11-1.75,1.62-.49,2.86-1.51,2.93-5,.19-2.84.29-6.3-.62-8.8,2.24-4.57.14-6,.2-7.57.34-1.72.44-2.08,4.24-2.79l.26-.14a25.21,25.21,0,0,1-3.3-3.75A32.8,32.8,0,0,1,423.61,188Z" style="fill:url(#linear-gradient-14)"/><path d="M142.31,145a3,3,0,0,0,.59.35C136.93,143.62,138.05,143.88,142.31,145Z" style="fill:#979797"/><path d="M178.65,157.82c-11-3,2.09,1.09-5.63-1.13-.53-.06-.35,0-5.55-1.66-7-2.36-5.6-3-5.83-3.91-6.23-2.7-4.34-2.72-6.46-2.64,3.8,1.81-6.8-.27-5.39,1-6.32-1-4.89.06-6-.51,2.24.45-1.78,1.1-7.7.73a9.63,9.63,0,0,0-1.85,0c1.54-1-3.3-3.85.72-4-2-2,2.92-1.85.4-3.85,4-.18,5.39,2,6.91,3.08-4.26-1.07-5.38-1.33.59.35a3,3,0,0,1-.59-.35l1.81.46c-2.73-1.09.57-.52,5.4.44,1-.69-3.83-3.36,6-1.15-1-1.1,6.25,1.73,7.18,2.94-4-.28,5.31,3.71,6.49,4.33-1.24-.25,4.48,1.46,4.4,1.33-1-.41-1.62-.82,8,1.78,1.93.53,3.77,1.51,4.75,1.75l-.88,2.71C183.13,159,179.69,158,178.65,157.82Z" style="fill:url(#linear-gradient-15)"/><path d="M135.35,153.08c-1.32.86-.12,2.53-.34,3.8-1.82.8-1.45,2.28-1.2,3.74s.39,2.88-1.9,3.56c-.56,1.2-1.1,2.38-1.59,3.54a34.42,34.42,0,0,0-1.25,3.38c-1,3.27-3.41,6.12-2.89,9.85,1.76,4.11,3.85,8.31-2.77,9.9-.91,3.31-3.28,6.17-2.65,9.94,2.49,4.33,1.59,7.63-2.49,10,2.52,5.94-5.07,8.21-3.09,13,1.49,4.64,6.6,10-2.56,10.91-2.55,2.92-4.19,6-2.47,10.18-2.26,3-4.53,6.13-2.83,10.82-3.26,1.12,5,5.78-1.69,6.08-.61,2.13-1.26,4.37-2,6.75,3.44-.12.44,4,2.36,5.9,1.53,1.79,1.8,3.63,3.06,4.55-2.6.35,3.88,1.78,7,2.5,7.82,2.11,13.23,3.78,5.5,3.7,14,4.85,6.69,3.36,6.82,4.08-.57.52-2.54.58-1.53,1.42,4.45,2.41,8.15,4.1,10.18,4.05.91-.07,4.16-3.85,6.4-4.23.59-.24,1.35-.49,2.25-.77l-2.61,8.68c-1.16.66-2.1,1-5.1.45-2.43,0-9.34-2.71-11.31-4.49-5.82-2.94-5.26-4.5-5.88-6.12,5.76-.76,1.82-2-6.11-4.11,2.6,1-4.07-.38-7.82-2.77,4.57.77-1-2.86-3.4-5.05-1.48-1.93-2-3.07-4.19-2.47-1.12-5.13,3.27-8.12,3.45-12.06.51-1.84,1-3.62,1.45-5.34-.35-2-.79-3.89,1.32-5-1.87-4.08,2.17-6.21,2.37-9.51-.2-3.41,2.51-5.95,2.27-9.54,3.16-2.56,1.59-6.7,2.44-10.44-.75-4.23,2-7.71,2.92-12.23,9.5-1.12.58-7.77,2.77-11.08,1.2-3.61,1.93-7.37,2.93-11s2-7.35,3.09-11,2.12-7.31,3.21-10.94c.63-2.46-.82-5.85,3.16-7.7,1.41-1.09-.79-3.29,1.69-4.07-1.83-2.05-3.11-3.92,1.36-4C132.35,150.28,134.45,151.84,135.35,153.08Z" style="fill:url(#linear-gradient-16)"/><path d="M133.76,149.82a2.18,2.18,0,0,1,.52-.1l-.13.09Z" style="fill:#666"/><path d="M143.83,149c1.07.57-.36-.52,6,.51-1.41-1.31,9.19.77,5.39-1,2.12-.08.23-.06,6.46,2.64.23.9-1.19,1.55,5.83,3.91,5.2,1.66,5,1.6,5.55,1.66,7.72,2.22-5.39-1.92,5.63,1.13,1,.19,4.48,1.17,6.81,1.72L145.75,289.69c-.9.28-2.49,4.3-3.08,4.54-2.25.38-2.95,2.62-3.85,2.68-2,.06-7.45-3.86-11.9-6.27-1-.84,1-.9,1.53-1.42-.13-.72,7.17.77-6.82-4.08,7.73.08,2.32-1.59-5.5-3.7-3.16-.72-9.64-2.15-7-2.5-1.26-.92-1.53-2.76-3.06-4.55-1.92-1.9,1.08-6-2.36-5.9.7-2.38,1.35-4.62,2-6.75,6.67-.3-1.57-5,1.69-6.08-1.7-4.69.57-7.81,2.83-10.82-1.72-4.2-.08-7.26,2.47-10.18,9.16-.93,4-6.27,2.56-10.91-2-4.78,5.61-7.05,3.09-13,4.08-2.34,5-5.64,2.49-10-.63-3.77,1.74-6.63,2.65-9.94,6.62-1.59,4.53-5.79,2.77-9.9-.52-3.73,1.89-6.58,2.89-9.85a34.42,34.42,0,0,1,1.25-3.38c.49-1.16,1-2.34,1.59-3.54,2.29-.68,2.16-2.11,1.9-3.56s-.62-2.94,1.2-3.74c.22-1.27-1-2.94.34-3.8-.9-1.24-3-2.8-1.59-3.26h.39l.13-.09a9.63,9.63,0,0,1,1.85,0C142.05,150.11,146.07,149.46,143.83,149Z" style="fill:url(#linear-gradient-17)"/><path d="M156.22,326.73c-1.66,5.31,2.22,2,.14,10.42-1.51,7.26-.9,9.06-2.18,10-1.82,2.35-3.31,1.15-7.93,6.56-.85-.42-2.29.39-3.8,1.69-.32.27-.64.58-1,.9l6.12,2.07a16.46,16.46,0,0,1,2-1.87,19.14,19.14,0,0,1,3.65-2c1.82-1.86,3.18-2.78,3.94-2.75a11.26,11.26,0,0,0,3.2-3.14c2-2.6.8-2.85,2-9,.17-4-1.63-4.58-.13-9.38.68-2.65,1.36-6,1-6.84-3.88,6.64,2.77-8.87,1.7-6.66.35-.76.64-1.37.89-1.9l-6.66-2.25c-.33,1.31-1,3.75-1.85,6.57C153.3,329.47,160.19,316.92,156.22,326.73Z" style="fill:url(#linear-gradient-18)"/><path d="M287.1,357.67c-3,.69-5.82,4.11-6.26,4.45-1.53,4-.76,5.74,1.11,6.49,1.53-1.13.63,6.46,3.46,5.17.16,4.41,4.36-.74,1,4.79-.85.06-5.61,4.39-6.29-.12-.91-4-4.79-1.93-7,.21-3,4.25-3.82,7.08-1.56,3.95.95-.31.06,4,.18,4.45-.62,2.38-3.29,7.46-2.56,5-1.21,1.65-4.42,7.27-3.28,4.74-.26.53-.47,1-.65,1.42l6.65,2.26c.68-1,1.82-2.76,3.14-5,2.22-3.71,2-2.54,2.85-5.54-.26-.25-.79-1.79-.2-4.94.56-1.85.41-2.07.13-1.84-1.07,1.63-.41.33,0,0,.34-.51.85-1.33,1.6-2.55-.3,3.4,3.17,2.84,7.73-.24,3.91-1.69,3.49,5.64,7,.13,2.66-3.79.62-3.67-1.08-5.3s-8.92-4.58-7.67-9.58c2.71-1,2.41-5.67,3.39-6.67l-.21-2.49-.68.57Z" style="fill:url(#linear-gradient-19)"/><path d="M265.91,396.78c-1.14,2.53,2.07-3.09,3.28-4.74-.73,2.48,1.94-2.6,2.56-5-.12-.46.77-4.76-.18-4.45-2.26,3.13-1.41.3,1.56-3.95,2.17-2.14,6.05-4.25,7-.21.68,4.51,5.44.18,6.29.12,3.39-5.53-.81-.38-1-4.79-2.83,1.29-1.93-6.3-3.46-5.17-1.87-.75-2.64-2.52-1.11-6.49-.12.09-.08,0,.17-.44l-.17.44c.44-.34,3.31-3.76,6.26-4.45l1.48-1.25L165.8,314.81c-.25.53-.54,1.14-.89,1.9,1.07-2.21-5.58,13.3-1.7,6.66.39.81-.29,4.19-1,6.84-1.5,4.8.3,5.39.13,9.38-1.16,6.11,0,6.36-2,9a11.26,11.26,0,0,1-3.2,3.14c-.76,0-2.12.89-3.94,2.75a19.14,19.14,0,0,0-3.65,2,16.46,16.46,0,0,0-2,1.87L265.26,398.2C265.44,397.78,265.65,397.31,265.91,396.78Z" style="fill:url(#linear-gradient-20)"/></svg>